<?xml version="1.0" standalone="no"?>
<!DOCTYPE svg PUBLIC "-//W3C//DTD SVG 20010904//EN"
 "http://www.w3.org/TR/2001/REC-SVG-20010904/DTD/svg10.dtd">
<svg version="1.0" xmlns="http://www.w3.org/2000/svg"
 width="368.000000pt" height="368.000000pt" viewBox="0 0 368.000000 368.000000"
 preserveAspectRatio="xMidYMid meet">
<metadata>
Created by potrace 1.14, written by Peter Selinger 2001-2017
</metadata>
<g transform="translate(0.000000,368.000000) scale(0.100000,-0.100000)"
fill="#000000" stroke="none">
<path d="M1301 3095 c-93 -44 -184 -155 -259 -315 -59 -125 -71 -156 -94 -234
l-23 -78 -35 5 c-19 3 -48 9 -65 12 -38 7 -182 35 -215 41 -14 3 -83 16 -155
29 -72 14 -141 26 -155 29 -14 2 -36 7 -50 10 -14 3 -41 8 -60 11 -19 2 -46 7
-60 10 -88 19 -130 21 -130 8 0 -5 15 -24 33 -43 81 -86 171 -275 251 -525 30
-96 102 -343 111 -385 13 -56 83 -281 112 -360 121 -323 308 -515 598 -615 28
-9 61 -19 75 -21 14 -3 34 -8 45 -11 11 -4 29 -8 40 -9 11 -1 47 -5 80 -9 181
-24 444 10 594 76 48 21 77 24 86 9 23 -37 203 -130 305 -157 69 -18 251 -24
327 -10 292 53 639 231 838 431 181 182 222 346 144 580 -25 74 -149 326 -161
326 -4 0 -8 5 -8 10 0 14 -134 226 -232 367 -292 419 -505 613 -752 683 -54
15 -92 19 -180 16 -61 -2 -127 -7 -146 -11 -50 -10 -187 -61 -225 -84 l-33
-19 -89 59 c-48 33 -95 65 -104 72 -54 42 -160 97 -214 111 -79 22 -133 19
-194 -9z"/>
</g>
</svg>
